<svg xmlns="http://www.w3.org/2000/svg" version="1.1" xmlns:xlink="http://www.w3.org/1999/xlink" xmlns:svgjs="http://svgjs.dev/svgjs" width="128" height="128" viewBox="0 0 128 128"><g transform="matrix(0.8046875,0,0,0.8046875,12.333870967741937,12.333870967741937)"><svg viewBox="0 0 155 155" data-background-color="#ffffff" preserveAspectRatio="xMidYMid meet" height="128" width="128" xmlns="http://www.w3.org/2000/svg" xmlns:xlink="http://www.w3.org/1999/xlink"><g id="tight-bounds" transform="matrix(1,0,0,1,0.25,0.25)"><svg viewBox="0 0 154.5 154.5" height="154.5" width="154.5"><g><svg></svg></g><g><svg viewBox="0 0 154.5 154.5" height="154.5" width="154.5"><g transform="matrix(1,0,0,1,55.789026927966106,47.74637100000001)"><svg viewBox="0 0 42.92194614406779 59.007257999999986" height="59.007257999999986" width="42.92194614406779"><g><svg viewBox="0 0 42.92194614406779 59.007257999999986" height="59.007257999999986" width="42.92194614406779"><g><svg viewBox="0 0 42.92194614406779 59.007257999999986" height="59.007257999999986" width="42.92194614406779"><g><svg viewBox="0 0 42.92194614406779 59.007257999999986" height="59.007257999999986" width="42.92194614406779"><g><svg viewBox="0 0 42.92194614406779 59.007257999999986" height="59.007257999999986" width="42.92194614406779"><g transform="matrix(1,0,0,1,0,0)"><svg width="42.92194614406779" viewBox="4.35 -34.95 25.75 35.400000000000006" height="59.007257999999986" data-palette-color="#010c80"><path d="M16.65-34.95L16.65-34.95Q20.35-34.95 22.93-34.05 25.5-33.15 27.08-31.1 28.65-29.05 29.38-25.65 30.1-22.25 30.1-17.25L30.1-17.25Q30.1-12.25 29.38-8.85 28.65-5.45 27.08-3.4 25.5-1.35 22.93-0.45 20.35 0.45 16.65 0.45L16.65 0.45Q13.1 0.45 10.08 0.33 7.05 0.2 4.35 0L4.35 0 6.25-3.6Q8.35-3.55 10.93-3.48 13.5-3.4 16.65-3.4L16.65-3.4Q19.95-3.4 21.9-4.67 23.85-5.95 24.68-8.97 25.5-12 25.5-17.25L25.5-17.25Q25.5-22.5 24.68-25.53 23.85-28.55 21.9-29.85 19.95-31.15 16.65-31.15L16.65-31.15Q13.55-31.15 11.08-31.1 8.6-31.05 6.25-31L6.25-31 4.35-34.5Q7.05-34.7 10.08-34.83 13.1-34.95 16.65-34.95ZM4.35-34.5L8.75-34.5 8.75 0 4.35 0 4.35-34.5Z" opacity="1" transform="matrix(1,0,0,1,0,0)" fill="#010c80" class="undefined-text-0" data-fill-palette-color="primary" id="text-0"></path></svg></g></svg></g></svg></g></svg></g></svg></g></svg></g><path d="M55.789 41.746L55.789 1 98.711 1 98.711 41.746 93.39 41.746 93.39 6.321 61.11 6.321 61.11 41.746 55.789 41.746M55.789 112.754L55.789 153.5 98.711 153.5 98.711 112.754 93.39 112.754 93.39 148.179 61.11 148.179 61.11 112.754 55.789 112.754" fill="#010c80" stroke="transparent" data-fill-palette-color="primary"></path></svg></g><defs></defs></svg><rect width="154.5" height="154.5" fill="none" stroke="none" visibility="hidden"></rect></g></svg></g></svg>